<?xml version="1.0" encoding="UTF-8"?><svg id="Layer_2" xmlns="http://www.w3.org/2000/svg" viewBox="0 0 1203 248"><defs><style>.cls-1{fill:#fff5dd;}</style></defs><g id="Layer_1-2"><path class="cls-1" d="M1111.62,62.88V4.84h-154.4c-34.54,0-67.82,15.19-88.95,42.47-.29.34-.53.68-.77,1.02-9.48,12.43-15.87,26.85-19.15,42.03-11.27-48.95-52.48-86.2-105.21-85.52h-187.39c34.97,15.77,57.66,45.71,57.66,97.56v16.78c.19,58.87-29.22,89.44-72.56,103.13v9.87h202.29c49.1.63,88.23-31.83,102.45-75.75v75.75h266.04v-58.04h-178.97v-29.02h178.97v-53.21h-178.97v-29.02h178.97ZM728.67,159.62h-95.92v-82.23h88.86c23.6,0,43.39,19.35,42.66,42.95-.73,21.72-13.5,39.28-35.6,39.28Z"/><path class="cls-1" d="M328.02,119.19v-16.78c-.19-57.95,28.15-88.42,70.28-102.4h-84.79v119.48c.53,38.41-30.81,44.98-67.82,45.52-36.81-.53-68.15-7.11-67.62-45.52v-22.73h-87.07v28.49c-.34,88.23,70.57,113.57,157.11,113.77,49.1,0,92.82-8.17,121.65-31.05-25.88-17.17-41.89-45.23-41.74-88.76Z"/><path class="cls-1" d="M534.37,107.87v5.71c.48,37.83-27.96,44.74-61.38,45.23-33.57-.48-62.01-7.4-61.53-45.23v-5.71c-.48-37.68,27.96-44.55,61.53-45.08,33.42.53,61.87,7.4,61.38,45.08Z"/><rect class="cls-1" y="230" width="1203" height="18"/></g></svg>