<?xml version="1.0" encoding="UTF-8"?><svg id="b" xmlns="http://www.w3.org/2000/svg" viewBox="0 0 308.47 231.35"><defs><style>.d{fill:#ff4700;}</style></defs><g id="c"><path class="d" d="M9.64,102.04v16.72c-.14,43.38,15.81,71.33,41.6,88.44-13.93,11.09-31.38,18.7-51.23,23.52V0h79.67C37.69,13.93,9.45,44.29,9.64,102.04Z"/><path class="d" d="M215.25,107.48v5.69c.48,37.69-27.86,44.58-61.16,45.07-33.45-.48-61.79-7.37-61.31-45.07v-5.69c-.48-37.55,27.86-44.39,61.31-44.92,33.31.53,61.65,7.37,61.16,44.92Z"/><path class="d" d="M308.47,4.82v226.53h-86.76v-9.83c43.19-13.64,72.49-44.1,72.3-102.76v-16.72c0-51.67-22.6-81.5-57.45-97.22h71.91Z"/></g></svg>