<?xml version="1.0" encoding="UTF-8"?><svg id="Layer_2" xmlns="http://www.w3.org/2000/svg" viewBox="0 0 365.33 274"><defs><style>.cls-1{fill:#fff5dd;}</style></defs><g id="Layer_1-2"><path class="cls-1" d="M11.42,120.85v19.81c-.17,51.37,18.72,84.48,49.26,104.75-16.5,13.13-37.16,22.15-60.68,27.86V0h94.36C44.64,16.5,11.19,52.46,11.42,120.85Z"/><path class="cls-1" d="M254.93,127.3v6.74c.57,44.64-32.99,52.8-72.44,53.37-39.62-.57-73.18-8.73-72.61-53.37v-6.74c-.57-44.47,32.99-52.57,72.61-53.2,39.44.63,73.01,8.73,72.44,53.2Z"/><path class="cls-1" d="M365.33,5.71v268.29h-102.75v-11.65c51.15-16.15,85.85-52.23,85.62-121.7v-19.81c0-61.19-26.77-96.53-68.04-115.14h85.17Z"/></g></svg>